<svg width="27" height="22" viewBox="0 0 27 22" fill="none" xmlns="http://www.w3.org/2000/svg">
<path d="M4.27246 21.9326C1.98438 21.9326 0.802734 20.7725 0.802734 18.4951V7.97852C0.802734 5.70117 1.98438 4.54102 4.27246 4.54102H7.87109V3.56348C7.87109 1.5332 9.06348 0.566406 10.9863 0.566406H16.0029C18.0225 0.566406 19.1289 1.5332 19.1289 3.56348V4.54102H22.7168C25.0264 4.54102 26.1973 5.70117 26.1973 7.97852V18.4951C26.1973 20.7725 25.0264 21.9326 22.7168 21.9326H22.126V4.54102H20.2998V21.9326H6.7002V4.54102H4.87402V21.9326H4.27246ZM9.82617 3.56348V4.54102H17.1738V3.56348C17.1738 2.79004 16.7334 2.36035 15.9385 2.36035H11.0508C10.2666 2.36035 9.82617 2.79004 9.82617 3.56348Z" fill="#3C3C43" fill-opacity="0.6"/>
</svg>
