<svg width="20" height="20" viewBox="0 0 20 20" fill="none" xmlns="http://www.w3.org/2000/svg">
<path d="M13.3332 1.66675V5.00008" stroke="#8B8B8C" stroke-width="1.66667" stroke-linecap="round" stroke-linejoin="round"/>
<path d="M6.66667 1.66675V5.00008" stroke="#8B8B8C" stroke-width="1.66667" stroke-linecap="round" stroke-linejoin="round"/>
<path d="M2.5 7.49992H17.5" stroke="#8B8B8C" stroke-width="1.66667" stroke-linecap="round" stroke-linejoin="round"/>
<path d="M10.0106 10.6075C9.89556 10.6075 9.80223 10.7008 9.80306 10.8158C9.80306 10.9308 9.8964 11.0242 10.0114 11.0242C10.1264 11.0242 10.2197 10.9308 10.2197 10.8158C10.2197 10.7008 10.1264 10.6075 10.0106 10.6075" stroke="#8B8B8C" stroke-width="1.66667" stroke-linecap="round" stroke-linejoin="round"/>
<path d="M14.1776 10.6075C14.0626 10.6075 13.9692 10.7008 13.9701 10.8158C13.9701 10.9308 14.0634 11.0242 14.1784 11.0242C14.2934 11.0242 14.3867 10.9308 14.3867 10.8158C14.3867 10.7008 14.2934 10.6075 14.1776 10.6075" stroke="#8B8B8C" stroke-width="1.66667" stroke-linecap="round" stroke-linejoin="round"/>
<path d="M5.84406 13.9408C5.72906 13.9408 5.63573 14.0341 5.63656 14.1491C5.63656 14.2641 5.72989 14.3574 5.84489 14.3574C5.95989 14.3574 6.05323 14.2641 6.05323 14.1491C6.05323 14.0341 5.95989 13.9408 5.84406 13.9408" stroke="#8B8B8C" stroke-width="1.66667" stroke-linecap="round" stroke-linejoin="round"/>
<path d="M10.0106 13.9408C9.89556 13.9408 9.80223 14.0341 9.80306 14.1491C9.80306 14.2641 9.8964 14.3574 10.0114 14.3574C10.1264 14.3574 10.2197 14.2641 10.2197 14.1491C10.2197 14.0341 10.1264 13.9408 10.0106 13.9408" stroke="#8B8B8C" stroke-width="1.66667" stroke-linecap="round" stroke-linejoin="round"/>
<rect x="2.5" y="3.33325" width="15" height="14.1667" rx="3.33333" stroke="#8B8B8C" stroke-width="1.66667"/>
</svg>
