<svg width="16" height="17" viewBox="0 0 16 17" fill="none" xmlns="http://www.w3.org/2000/svg">
<path d="M4.77197 11.7671C3.9751 10.9702 3.25846 10.1318 2.62207 9.25195C1.98568 8.37207 1.4821 7.49495 1.11133 6.62061C0.74056 5.74072 0.555176 4.90234 0.555176 4.10547C0.555176 3.57422 0.646484 3.07617 0.829102 2.61133C1.01725 2.14095 1.31331 1.71208 1.71729 1.32471C2.21533 0.843262 2.74935 0.602539 3.31934 0.602539C3.54069 0.602539 3.75098 0.649577 3.9502 0.743652C4.15495 0.832194 4.3265 0.976074 4.46484 1.17529L6.24951 3.69043C6.39339 3.88411 6.49854 4.06396 6.56494 4.22998C6.63135 4.396 6.66455 4.55371 6.66455 4.70312C6.66455 4.89128 6.61198 5.07389 6.50684 5.25098C6.40169 5.42806 6.25781 5.61068 6.0752 5.79883L5.48584 6.40479C5.40283 6.48779 5.36133 6.59017 5.36133 6.71191C5.36133 6.77279 5.36963 6.83366 5.38623 6.89453C5.40837 6.94987 5.4305 6.99967 5.45264 7.04395C5.58545 7.2985 5.8234 7.62777 6.1665 8.03174C6.5096 8.43571 6.88314 8.84245 7.28711 9.25195C7.69661 9.66146 8.10335 10.0378 8.50732 10.3809C8.9113 10.7184 9.24333 10.9564 9.50342 11.0947C9.54215 11.1113 9.58919 11.1307 9.64453 11.1528C9.7054 11.175 9.76904 11.186 9.83545 11.186C9.96273 11.186 10.0679 11.1418 10.1509 11.0532L10.7402 10.4722C10.9284 10.284 11.111 10.1401 11.2881 10.0405C11.4652 9.93538 11.6478 9.88281 11.8359 9.88281C11.9854 9.88281 12.1431 9.91602 12.3091 9.98242C12.4751 10.0488 12.6549 10.1484 12.8486 10.2812L15.397 12.0908C15.5907 12.2292 15.729 12.3952 15.812 12.5889C15.9006 12.777 15.9448 12.9762 15.9448 13.1865C15.9448 13.4688 15.8812 13.7482 15.7539 14.0249C15.6266 14.3071 15.4523 14.57 15.231 14.8135C14.8547 15.2285 14.4341 15.5329 13.9692 15.7266C13.5044 15.9202 13.0036 16.0171 12.4668 16.0171C11.6755 16.0171 10.8371 15.8289 9.95166 15.4526C9.06624 15.0763 8.18083 14.5672 7.29541 13.9253C6.40999 13.2834 5.56885 12.564 4.77197 11.7671Z" fill="#1A1A1A" fill-opacity="0.6"/>
</svg>
