<svg width="22" height="17" viewBox="0 0 22 17" fill="none" xmlns="http://www.w3.org/2000/svg">
<path d="M4.75977 5.77148C4.83008 5.49023 4.91211 5.19141 5.00586 4.875C5.09961 4.55859 5.19629 4.26563 5.2959 3.99609C5.40137 3.7207 5.49805 3.50977 5.58594 3.36328C5.70312 3.14063 5.84082 2.97949 5.99902 2.87988C6.15723 2.78027 6.3623 2.70996 6.61426 2.66895C6.91309 2.62793 7.42285 2.5957 8.14355 2.57227C8.87012 2.54883 9.82227 2.53711 11 2.53711C12.1719 2.53711 13.1211 2.54883 13.8477 2.57227C14.5742 2.5957 15.0869 2.62793 15.3857 2.66895C15.6377 2.70996 15.8428 2.78027 16.001 2.87988C16.1592 2.97949 16.2969 3.14063 16.4141 3.36328C16.4961 3.50977 16.5869 3.7207 16.6865 3.99609C16.792 4.26563 16.8916 4.55859 16.9854 4.875C17.085 5.19141 17.167 5.49023 17.2314 5.77148C17.2725 5.94727 17.2549 6.07617 17.1787 6.1582C17.1084 6.24023 16.9795 6.27832 16.792 6.27246C16.3584 6.24316 15.875 6.2168 15.3418 6.19336C14.8086 6.16406 14.1904 6.14355 13.4873 6.13184C12.7842 6.11426 11.9551 6.10547 11 6.10547C10.0449 6.10547 9.21582 6.11426 8.5127 6.13184C7.80957 6.14355 7.19141 6.16406 6.6582 6.19336C6.13086 6.2168 5.65039 6.24316 5.2168 6.27246C5.02344 6.27832 4.88867 6.24023 4.8125 6.1582C4.73633 6.07617 4.71875 5.94727 4.75977 5.77148ZM4.64551 11.9326C4.22363 11.9326 3.87207 11.792 3.59082 11.5107C3.30957 11.2295 3.16895 10.8809 3.16895 10.4648C3.16895 10.043 3.30957 9.69434 3.59082 9.41895C3.87207 9.1377 4.22363 8.99707 4.64551 8.99707C5.06152 8.99707 5.41016 9.1377 5.69141 9.41895C5.97266 9.69434 6.11328 10.043 6.11328 10.4648C6.11328 10.8809 5.97266 11.2295 5.69141 11.5107C5.41016 11.792 5.06152 11.9326 4.64551 11.9326ZM8.62695 11.5635C8.31055 11.5635 8.05273 11.4668 7.85352 11.2734C7.66016 11.0742 7.56348 10.8164 7.56348 10.5C7.56348 10.1895 7.66016 9.9375 7.85352 9.74414C8.05273 9.54492 8.31055 9.44531 8.62695 9.44531H13.373C13.6836 9.44531 13.9355 9.54492 14.1289 9.74414C14.3281 9.9375 14.4277 10.1895 14.4277 10.5C14.4277 10.8164 14.3281 11.0742 14.1289 11.2734C13.9355 11.4668 13.6836 11.5635 13.373 11.5635H8.62695ZM17.3545 11.9326C16.9385 11.9326 16.5898 11.792 16.3086 11.5107C16.0332 11.2295 15.8955 10.8809 15.8955 10.4648C15.8955 10.043 16.0332 9.69434 16.3086 9.41895C16.5898 9.1377 16.9385 8.99707 17.3545 8.99707C17.7764 8.99707 18.125 9.1377 18.4004 9.41895C18.6816 9.69434 18.8223 10.043 18.8223 10.4648C18.8223 10.8809 18.6816 11.2295 18.4004 11.5107C18.125 11.792 17.7764 11.9326 17.3545 11.9326ZM11 14.4814C10.25 14.4814 9.45898 14.4727 8.62695 14.4551C7.80078 14.4375 6.98926 14.4141 6.19238 14.3848C5.40137 14.3496 4.6748 14.3115 4.0127 14.2705C3.35059 14.2295 2.81152 14.1855 2.39551 14.1387C1.7627 14.0625 1.27051 13.8486 0.918945 13.4971C0.573242 13.1455 0.400391 12.668 0.400391 12.0645V10.5176C0.400391 10.002 0.435547 9.55078 0.505859 9.16406C0.576172 8.77734 0.69043 8.41699 0.848633 8.08301C1.0127 7.74902 1.23242 7.40332 1.50781 7.0459L2.28125 6.07031C2.39258 5.54297 2.52441 5.02148 2.67676 4.50586C2.8291 3.99023 2.97852 3.52734 3.125 3.11719C3.27148 2.70703 3.39746 2.39355 3.50293 2.17676C3.74316 1.66113 4.0918 1.24805 4.54883 0.9375C5.00586 0.626953 5.53906 0.433594 6.14844 0.357422C6.35352 0.333984 6.69043 0.313477 7.15918 0.295898C7.62793 0.272461 8.19043 0.254883 8.84668 0.243164C9.50293 0.231445 10.2207 0.225586 11 0.225586C11.7734 0.225586 12.4883 0.231445 13.1445 0.243164C13.8066 0.254883 14.3691 0.269531 14.832 0.287109C15.3008 0.304688 15.6406 0.328125 15.8516 0.357422C16.4551 0.439453 16.9854 0.635742 17.4424 0.946289C17.9053 1.25098 18.2598 1.66113 18.5059 2.17676C18.6055 2.39355 18.7285 2.70703 18.875 3.11719C19.0273 3.52734 19.1768 3.99023 19.3232 4.50586C19.4756 5.02148 19.6045 5.54297 19.71 6.07031L20.4922 7.0459C20.7676 7.40332 20.9873 7.74902 21.1514 8.08301C21.3154 8.41699 21.4297 8.77734 21.4941 9.16406C21.5645 9.55078 21.5996 10.002 21.5996 10.5176V12.0645C21.5996 12.668 21.4268 13.1455 21.0811 13.4971C20.7354 13.8486 20.2432 14.0625 19.6045 14.1387C19.1885 14.1855 18.6494 14.2295 17.9873 14.2705C17.3252 14.3115 16.5957 14.3496 15.7988 14.3848C15.0078 14.4141 14.1963 14.4375 13.3643 14.4551C12.5381 14.4727 11.75 14.4814 11 14.4814ZM11 13.0752C11.7559 13.0752 12.5352 13.0664 13.3379 13.0488C14.1465 13.0312 14.9287 13.0078 15.6846 12.9785C16.4463 12.9492 17.1318 12.917 17.7412 12.8818C18.3506 12.8467 18.834 12.8057 19.1914 12.7588C19.5664 12.7178 19.8301 12.6035 19.9824 12.416C20.1348 12.2227 20.2109 11.9561 20.2109 11.6162V10.4473C20.2109 10.0488 20.1846 9.70898 20.1318 9.42773C20.0791 9.14648 19.9912 8.88574 19.8682 8.64551C19.7451 8.39941 19.5811 8.1416 19.376 7.87207L18.4268 6.62402C18.3682 6.33105 18.292 6.00586 18.1982 5.64844C18.1104 5.29102 18.0107 4.93652 17.8994 4.58496C17.7939 4.22754 17.6855 3.89648 17.5742 3.5918C17.4629 3.28711 17.3633 3.03809 17.2754 2.84473C17.123 2.53418 16.9092 2.28809 16.6338 2.10645C16.3643 1.9248 16.0303 1.81055 15.6318 1.76367C15.4443 1.73438 15.1338 1.70801 14.7002 1.68457C14.2725 1.66113 13.7422 1.64355 13.1094 1.63184C12.4824 1.61426 11.7793 1.60547 11 1.60547C10.2266 1.60547 9.52637 1.61426 8.89941 1.63184C8.27246 1.64355 7.73926 1.66113 7.2998 1.68457C6.86621 1.70801 6.5498 1.73438 6.35059 1.76367C5.96387 1.81055 5.63281 1.9248 5.35742 2.10645C5.08789 2.28223 4.87988 2.52539 4.7334 2.83594C4.63965 3.03516 4.53711 3.28711 4.42578 3.5918C4.31445 3.89648 4.20312 4.22754 4.0918 4.58496C3.98047 4.94238 3.87793 5.2998 3.78418 5.65723C3.69629 6.00879 3.62598 6.33105 3.57324 6.62402L2.63281 7.87207C2.42188 8.1416 2.25488 8.39941 2.13184 8.64551C2.00879 8.88574 1.91797 9.14648 1.85938 9.42773C1.80664 9.70898 1.78027 10.0488 1.78027 10.4473V11.6162C1.78027 11.9561 1.85938 12.2197 2.01758 12.4072C2.17578 12.5947 2.43945 12.7119 2.80859 12.7588C3.17188 12.8057 3.65527 12.8496 4.25879 12.8906C4.86816 12.9258 5.55078 12.958 6.30664 12.9873C7.0625 13.0107 7.84473 13.0312 8.65332 13.0488C9.46777 13.0664 10.25 13.0752 11 13.0752ZM2.04395 16.9072C1.7041 16.9072 1.41992 16.793 1.19141 16.5645C0.962891 16.3359 0.848633 16.0547 0.848633 15.7207V12.9434L4.28516 13.5674V15.7207C4.28516 16.0547 4.1709 16.3359 3.94238 16.5645C3.71387 16.793 3.42969 16.9072 3.08984 16.9072H2.04395ZM18.9014 16.9072C18.5674 16.9072 18.2861 16.793 18.0576 16.5645C17.835 16.3359 17.7236 16.0547 17.7236 15.7207V13.5674L21.1514 12.9434V15.7207C21.1514 16.0547 21.0371 16.3359 20.8086 16.5645C20.5801 16.793 20.2988 16.9072 19.9648 16.9072H18.9014Z" fill="#999999"/>
</svg>
