<svg width="20" height="23" viewBox="0 0 20 23" fill="none" xmlns="http://www.w3.org/2000/svg">
<path d="M9.98926 22.2549C9.48438 22.2549 9.14062 21.8789 9.14062 21.3418V19.1289L7.48633 20.1064C7.05664 20.3857 6.60547 20.3535 6.33691 19.9238C6.10059 19.5586 6.21875 19.0967 6.66992 18.8281L9.14062 17.3887V16.0674L9.36621 12.3398L6.24023 14.4023L5.10156 15.0576L5.08008 17.915C5.06934 18.4307 4.73633 18.7637 4.2959 18.7529C3.79102 18.7422 3.5332 18.3447 3.56543 17.8398L3.59766 15.9385L1.66406 17.0449C1.20215 17.3027 0.729492 17.2061 0.460938 16.7441C0.203125 16.3037 0.353516 15.8096 0.804688 15.5518L2.72754 14.4453L1.0625 13.5C0.611328 13.2744 0.407227 12.877 0.654297 12.415C0.847656 12.0283 1.30957 11.8887 1.76074 12.1465L4.23145 13.5752L5.3916 12.9092L8.75391 11.2441L5.38086 9.5791L4.24219 8.91309L1.77148 10.3311C1.30957 10.5889 0.836914 10.46 0.632812 10.0732C0.407227 9.61133 0.611328 9.20312 1.0625 8.97754L2.72754 8.04297L0.804688 6.93652C0.353516 6.67871 0.192383 6.19531 0.460938 5.7334C0.71875 5.29297 1.20215 5.18555 1.66406 5.44336L3.59766 6.5498L3.56543 4.6377C3.5332 4.13281 3.79102 3.74609 4.30664 3.73535C4.73633 3.71387 5.06934 4.04688 5.08008 4.5625L5.09082 7.41992L6.24023 8.08594L9.36621 10.1484L9.14062 6.41016V5.08887L6.66992 3.66016C6.21875 3.3916 6.10059 2.92969 6.33691 2.55371C6.60547 2.12402 7.05664 2.0918 7.48633 2.37109L9.14062 3.34863V1.13574C9.14062 0.598633 9.48438 0.233398 9.98926 0.233398C10.5264 0.233398 10.8486 0.598633 10.8486 1.13574V3.34863L12.4922 2.37109C12.9111 2.0918 13.3838 2.12402 13.6523 2.55371C13.8779 2.92969 13.7705 3.3916 13.3193 3.66016L10.8486 5.08887V6.41016L10.623 10.1484L13.749 8.08594L14.8984 7.41992L14.9092 4.5625C14.9092 4.04688 15.2529 3.71387 15.6934 3.73535C16.1982 3.74609 16.4561 4.13281 16.4131 4.6377L16.3916 6.5498L18.3252 5.44336C18.7979 5.1748 19.2705 5.29297 19.5283 5.7334C19.7861 6.19531 19.6465 6.66797 19.1846 6.93652L17.2617 8.04297L18.9268 8.97754C19.3779 9.20312 19.582 9.62207 19.3564 10.0625C19.1416 10.46 18.6689 10.5889 18.2178 10.3311L15.7471 8.91309L14.5977 9.5791L11.2354 11.2441L14.5977 12.9092L15.7471 13.5752L18.2285 12.1465C18.6797 11.8994 19.1309 12.0283 19.3457 12.415C19.582 12.8555 19.3779 13.2744 18.9268 13.5L17.2617 14.4453L19.1738 15.5518C19.6357 15.8096 19.7646 16.293 19.5176 16.7549C19.2598 17.1953 18.7871 17.3135 18.3252 17.0449L16.3916 15.917L16.4238 17.8398C16.4561 18.3447 16.1982 18.7422 15.6826 18.7529C15.2529 18.7744 14.9092 18.4307 14.9092 17.915L14.8984 15.0576L13.749 14.4023L10.623 12.3506L10.8486 16.0674V17.3994L13.3193 18.8174C13.7705 19.0859 13.8779 19.5586 13.6523 19.9238C13.373 20.3535 12.9111 20.3857 12.4922 20.1064L10.8486 19.1289V21.3418C10.8486 21.8789 10.5264 22.2549 9.98926 22.2549Z" fill="#3C3C43" fill-opacity="0.6"/>
</svg>
