<svg width="20" height="22" viewBox="0 0 20 22" fill="none" xmlns="http://www.w3.org/2000/svg">
<path d="M5.59814 19.814C4.70166 19.814 4.02376 19.5871 3.56445 19.1333C3.10514 18.6795 2.87549 18.0072 2.87549 17.1162V8.94824C2.87549 8.06283 3.10514 7.39323 3.56445 6.93945C4.02376 6.48014 4.70166 6.25049 5.59814 6.25049H8.00537V7.88574H5.69775C5.31038 7.88574 5.01432 7.98812 4.80957 8.19287C4.61035 8.39209 4.51074 8.69368 4.51074 9.09766V16.9751C4.51074 17.3791 4.61035 17.6807 4.80957 17.8799C5.01432 18.0846 5.31038 18.187 5.69775 18.187H15.0527C15.4346 18.187 15.7279 18.0846 15.9326 17.8799C16.1429 17.6807 16.248 17.3791 16.248 16.9751V9.09766C16.248 8.69368 16.1429 8.39209 15.9326 8.19287C15.7279 7.98812 15.4346 7.88574 15.0527 7.88574H12.7534V6.25049H15.1606C16.0571 6.25049 16.735 6.48014 17.1943 6.93945C17.6536 7.39323 17.8833 8.06283 17.8833 8.94824V17.1162C17.8833 18.0016 17.6536 18.6712 17.1943 19.125C16.735 19.5843 16.0571 19.814 15.1606 19.814H5.59814ZM10.3794 13.1982C10.1691 13.1982 9.98649 13.1235 9.83154 12.9741C9.68213 12.8247 9.60742 12.6476 9.60742 12.4429V4.08398L9.67383 2.84717L9.15088 3.45312L7.98877 4.69824C7.85596 4.84766 7.68441 4.92236 7.47412 4.92236C7.28044 4.92236 7.11719 4.86149 6.98438 4.73975C6.8571 4.61247 6.79346 4.45199 6.79346 4.2583C6.79346 4.08122 6.86263 3.91797 7.00098 3.76855L9.79004 1.0874C9.89518 0.987793 9.99479 0.91862 10.0889 0.879883C10.1829 0.841146 10.2798 0.821777 10.3794 0.821777C10.479 0.821777 10.5758 0.841146 10.6699 0.879883C10.764 0.91862 10.8608 0.987793 10.9604 1.0874L13.7495 3.76855C13.8934 3.91797 13.9653 4.08122 13.9653 4.2583C13.9653 4.45199 13.8962 4.61247 13.7578 4.73975C13.625 4.86149 13.4645 4.92236 13.2764 4.92236C13.0716 4.92236 12.9001 4.84766 12.7617 4.69824L11.5996 3.45312L11.085 2.84717L11.1514 4.08398V12.4429C11.1514 12.6476 11.0739 12.8247 10.9189 12.9741C10.7695 13.1235 10.5897 13.1982 10.3794 13.1982Z" fill="black"/>
</svg>
