<svg width="25" height="24" viewBox="0 0 25 24" fill="none" xmlns="http://www.w3.org/2000/svg">
<path d="M4.5 10C4.5 10.5304 4.71071 11.0391 5.08579 11.4142C5.46086 11.7893 5.96957 12 6.5 12C7.03043 12 7.53914 11.7893 7.91421 11.4142C8.28929 11.0391 8.5 10.5304 8.5 10C8.5 9.46957 8.28929 8.96086 7.91421 8.58579C7.53914 8.21071 7.03043 8 6.5 8C5.96957 8 5.46086 8.21071 5.08579 8.58579C4.71071 8.96086 4.5 9.46957 4.5 10Z" stroke="#1A1A1A" stroke-width="1.5" stroke-linecap="round" stroke-linejoin="round"/>
<path d="M6.5 4V8" stroke="#1A1A1A" stroke-width="1.5" stroke-linecap="round" stroke-linejoin="round"/>
<path d="M6.5 12V20" stroke="#1A1A1A" stroke-width="1.5" stroke-linecap="round" stroke-linejoin="round"/>
<path d="M10.5 16C10.5 16.5304 10.7107 17.0391 11.0858 17.4142C11.4609 17.7893 11.9696 18 12.5 18C13.0304 18 13.5391 17.7893 13.9142 17.4142C14.2893 17.0391 14.5 16.5304 14.5 16C14.5 15.4696 14.2893 14.9609 13.9142 14.5858C13.5391 14.2107 13.0304 14 12.5 14C11.9696 14 11.4609 14.2107 11.0858 14.5858C10.7107 14.9609 10.5 15.4696 10.5 16Z" stroke="#1A1A1A" stroke-width="1.5" stroke-linecap="round" stroke-linejoin="round"/>
<path d="M12.5 4V14" stroke="#1A1A1A" stroke-width="1.5" stroke-linecap="round" stroke-linejoin="round"/>
<path d="M12.5 18V20" stroke="#1A1A1A" stroke-width="1.5" stroke-linecap="round" stroke-linejoin="round"/>
<path d="M16.5 7C16.5 7.53043 16.7107 8.03914 17.0858 8.41421C17.4609 8.78929 17.9696 9 18.5 9C19.0304 9 19.5391 8.78929 19.9142 8.41421C20.2893 8.03914 20.5 7.53043 20.5 7C20.5 6.46957 20.2893 5.96086 19.9142 5.58579C19.5391 5.21071 19.0304 5 18.5 5C17.9696 5 17.4609 5.21071 17.0858 5.58579C16.7107 5.96086 16.5 6.46957 16.5 7Z" stroke="#1A1A1A" stroke-width="1.5" stroke-linecap="round" stroke-linejoin="round"/>
<path d="M18.5 4V5" stroke="#1A1A1A" stroke-width="1.5" stroke-linecap="round" stroke-linejoin="round"/>
<path d="M18.5 9V20" stroke="#1A1A1A" stroke-width="1.5" stroke-linecap="round" stroke-linejoin="round"/>
</svg>
