<svg width="24" height="25" viewBox="0 0 24 25" fill="none" xmlns="http://www.w3.org/2000/svg">
<path d="M0.957031 23.3516C0.957031 22.8037 1.4082 22.3525 1.94531 22.3525H2.70801V2.96289C2.70801 1.13672 3.68555 0.126953 5.52246 0.126953H14.2559C16.082 0.126953 17.0918 1.13672 17.0918 2.96289V12.8135H17.2637C18.7568 12.8135 19.6699 13.6943 19.6699 15.2197V18.7646C19.6699 19.291 19.9922 19.6133 20.5186 19.6133C21.0449 19.6133 21.3564 19.291 21.3564 18.7646V10.9443L19.5518 8.83887C19.0469 8.2373 18.9824 7.59277 19.4658 6.92676L20.8301 5.01465C20.9805 4.7998 20.9912 4.54199 20.8623 4.32715L19.6484 2.36133C19.0361 1.3623 20.4541 0.513672 21.0664 1.48047L22.5381 3.86523C22.8604 4.3916 23.0322 4.90723 23.0322 5.57324V18.7646C23.0322 20.3223 22.0869 21.2891 20.5186 21.2891C18.9609 21.2891 17.9941 20.3223 17.9941 18.7646V15.2197C17.9941 14.7363 17.7148 14.4893 17.2637 14.4893H17.0918V22.3525H17.833C18.3809 22.3525 18.8428 22.8145 18.8428 23.3516C18.8428 23.9102 18.3809 24.3613 17.833 24.3613H1.94531C1.39746 24.3613 0.957031 23.9102 0.957031 23.3516ZM5.93066 11.6104H13.8584C14.6211 11.6104 15.0938 11.1914 15.0938 10.5039V3.26367C15.0938 2.57617 14.6211 2.13574 13.8584 2.13574H5.93066C5.16797 2.13574 4.70605 2.57617 4.70605 3.26367V10.5039C4.70605 11.1914 5.16797 11.6104 5.93066 11.6104Z" fill="#3C3C43" fill-opacity="0.6"/>
</svg>
