<svg width="12" height="20" viewBox="0 0 12 20" fill="none" xmlns="http://www.w3.org/2000/svg">
<path d="M0.110352 10.0068C0.115885 9.81315 0.154622 9.63607 0.226562 9.47559C0.298503 9.3151 0.40918 9.16016 0.558594 9.01074L8.87598 0.958984C9.11393 0.721029 9.40723 0.602051 9.75586 0.602051C9.98828 0.602051 10.1986 0.657389 10.3867 0.768066C10.5804 0.878743 10.7326 1.02816 10.8433 1.21631C10.9595 1.40446 11.0176 1.61475 11.0176 1.84717C11.0176 2.19027 10.8875 2.49186 10.6274 2.75195L3.10693 9.99854L10.6274 17.2534C10.8875 17.519 11.0176 17.8206 11.0176 18.1582C11.0176 18.3962 10.9595 18.6092 10.8433 18.7974C10.7326 18.9855 10.5804 19.1349 10.3867 19.2456C10.1986 19.3618 9.98828 19.4199 9.75586 19.4199C9.40723 19.4199 9.11393 19.2982 8.87598 19.0547L0.558594 11.0029C0.403646 10.8535 0.290202 10.6986 0.218262 10.5381C0.146322 10.3721 0.110352 10.195 0.110352 10.0068Z" fill="#1A1A1A" fill-opacity="0.6"/>
</svg>
