<svg width="13" height="15" viewBox="0 0 13 15" fill="none" xmlns="http://www.w3.org/2000/svg">
<path opacity="0.6" d="M3.77979 2.84033C3.77979 1.52637 4.83984 0.447266 6.16016 0.447266C7.48682 0.447266 8.54688 1.52637 8.54688 2.84033C8.54688 3.95752 7.78516 4.89697 6.75049 5.15088V9.16895C6.75049 11.0479 6.42041 12.0635 6.16016 12.0635C5.90625 12.0635 5.56982 11.0415 5.56982 9.16895V5.15088C4.53516 4.89062 3.77979 3.95752 3.77979 2.84033ZM5.48096 2.97363C5.93164 2.97363 6.2998 2.59277 6.2998 2.14844C6.2998 1.71045 5.93164 1.33594 5.48096 1.33594C5.04932 1.33594 4.66846 1.71045 4.66846 2.14844C4.66846 2.59277 5.04932 2.97363 5.48096 2.97363ZM6.1665 14.3867C2.33887 14.3867 0.13623 13.0664 0.13623 11.6699C0.13623 9.99414 2.7959 8.97217 4.5415 8.95312V9.87988C3.31641 9.89893 1.4248 10.5654 1.4248 11.5176C1.4248 12.6221 3.42432 13.3838 6.1665 13.3838C8.896 13.3838 10.9082 12.6094 10.9082 11.5176C10.9082 10.5654 9.01025 9.89893 7.78516 9.87988V8.95312C9.53076 8.97217 12.1904 9.99414 12.1904 11.6699C12.1904 13.0664 9.99414 14.3867 6.1665 14.3867Z" fill="#1A1A1A"/>
</svg>
