<svg width="28" height="28" viewBox="0 0 28 28" fill="none" xmlns="http://www.w3.org/2000/svg">
<path d="M9.57592 0.00744882C9.61533 0.00715489 9.65474 0.00686097 9.69535 0.00655814C9.82713 0.00577864 9.95888 0.00616655 10.0907 0.00655526C10.1853 0.00624399 10.2799 0.00586391 10.3744 0.0054202C10.6312 0.00444057 10.888 0.00450553 11.1447 0.00481672C11.3591 0.00498532 11.5735 0.00465312 11.7878 0.00432342C12.2936 0.00355665 12.7993 0.00364229 13.3051 0.00426349C13.8268 0.00489013 14.3484 0.00412188 14.8701 0.00265915C15.3181 0.00145012 15.7661 0.00108761 16.2141 0.00140807C16.4816 0.00159208 16.7492 0.00145939 17.0167 0.000521148C17.2683 -0.000322642 17.5198 -0.000107746 17.7714 0.000919834C17.8637 0.00112113 17.956 0.000950966 18.0483 0.000380306C18.1744 -0.000339872 18.3004 0.000288814 18.4265 0.00125304C18.497 0.00126447 18.5675 0.00127589 18.6401 0.00128766C18.9113 0.0402809 19.083 0.156418 19.2537 0.369707C19.3757 0.654048 19.3986 0.86473 19.3147 1.15765C19.1878 1.37611 19.0933 1.47108 18.8844 1.61131C18.7765 1.63279 18.668 1.65151 18.559 1.66589C18.5616 1.70626 18.5642 1.74662 18.5669 1.78821C18.5919 2.17644 18.6166 2.56469 18.6411 2.95296C18.6537 3.15237 18.6663 3.35177 18.6792 3.55116C18.7465 4.59618 18.8 5.64 18.8301 6.68689C18.8674 6.68647 18.9046 6.68605 18.943 6.68562C18.9918 6.68529 19.0406 6.68496 19.091 6.68462C19.1394 6.6842 19.1878 6.68378 19.2377 6.68335C19.7675 6.69728 20.3357 7.05491 20.7143 7.41002C21.4252 8.17952 21.4642 9.04799 21.4573 10.042C21.4572 10.1658 21.4573 10.2895 21.4574 10.4133C21.4574 10.7477 21.4562 11.0821 21.4547 11.4165C21.4533 11.7665 21.4532 12.1166 21.4529 12.4667C21.4523 13.0537 21.451 13.6407 21.449 14.2278C21.447 14.8321 21.4455 15.4365 21.4446 16.0408C21.4445 16.0781 21.4445 16.1155 21.4444 16.1539C21.4441 16.3412 21.4439 16.5284 21.4436 16.7157C21.4413 18.2664 21.4375 19.8171 21.4327 21.3679C21.4837 21.3834 21.5348 21.399 21.5874 21.415C21.796 21.4908 21.8631 21.5583 21.9749 21.7499C22.0018 21.9341 22.0018 21.9341 21.9986 22.1319C21.9985 22.2299 21.9985 22.2299 21.9984 22.3298C21.9734 22.5255 21.9285 22.6298 21.8122 22.7868C21.6688 22.8815 21.607 22.896 21.4327 22.896C21.4338 22.9306 21.4349 22.9652 21.4361 23.0008C21.4614 23.8865 21.4413 24.5697 20.8905 25.2973C20.8301 25.3818 20.8301 25.3818 20.7685 25.4679C20.4182 25.8365 20.011 26.061 19.535 26.2251C19.592 26.2454 19.6491 26.2657 19.7078 26.2865C19.9638 26.3957 20.1152 26.5744 20.2398 26.8255C20.2495 26.9594 20.2549 27.0905 20.2568 27.2246C20.2588 27.2964 20.2608 27.3682 20.2629 27.4422C20.2367 27.6715 20.184 27.7567 20.023 27.917C19.8456 28.0062 19.6495 27.9796 19.4546 27.9796C19.4064 27.9798 19.3583 27.98 19.3086 27.9802C19.1462 27.9808 18.9839 27.981 18.8215 27.9812C18.7055 27.9816 18.5894 27.9819 18.4734 27.9823C18.1575 27.9833 17.8416 27.9838 17.5257 27.9843C17.3285 27.9846 17.1313 27.9849 16.9341 27.9852C16.3175 27.9863 15.7009 27.9871 15.0843 27.9875C14.3717 27.988 13.6591 27.9895 12.9465 27.9917C12.3962 27.9933 11.846 27.9941 11.2957 27.9943C10.9668 27.9945 10.638 27.9949 10.3091 27.9963C9.99972 27.9976 9.6904 27.9978 9.38105 27.9973C9.26742 27.9972 9.15378 27.9976 9.04015 27.9983C8.88519 27.9993 8.73029 27.9989 8.57533 27.9982C8.50764 27.9991 8.50764 27.9991 8.43858 28C8.22268 27.9976 8.11924 27.9873 7.93253 27.8676C7.74278 27.6684 7.7575 27.5204 7.75247 27.2484C7.75044 27.1772 7.74842 27.106 7.74633 27.0327C7.77968 26.7333 7.90904 26.5719 8.12184 26.3684C8.25739 26.2797 8.25739 26.2797 8.47427 26.2797C8.47427 26.2437 8.47427 26.2077 8.47427 26.1706C8.43485 26.1639 8.39543 26.1572 8.35481 26.1503C7.76563 26.0169 7.29824 25.6133 6.96629 25.12C6.54198 24.3889 6.54946 23.7226 6.57659 22.896C6.53438 22.8892 6.49216 22.8823 6.44867 22.8753C6.27075 22.8332 6.20535 22.7616 6.08862 22.6231C5.96195 22.3681 6.00662 22.0266 6.0344 21.7499C6.10486 21.5824 6.15808 21.5378 6.3055 21.4224C6.45057 21.3877 6.45057 21.3877 6.57659 21.3679C6.57639 21.3038 6.57619 21.2397 6.57599 21.1736C6.57128 19.6504 6.56771 18.1272 6.56552 16.604C6.56525 16.4162 6.56496 16.2285 6.56468 16.0408C6.56462 16.0035 6.56456 15.9661 6.56451 15.9276C6.56356 15.3235 6.56185 14.7194 6.55986 14.1153C6.55783 13.4949 6.55664 12.8744 6.55619 12.254C6.5559 11.9058 6.55524 11.5575 6.55366 11.2093C6.55218 10.8812 6.55174 10.5531 6.55206 10.225C6.552 10.1049 6.55157 9.9848 6.55074 9.86468C6.54458 8.93167 6.63378 8.1257 7.295 7.41002C7.72936 7.00252 8.31735 6.67941 8.91829 6.68462C8.96713 6.68495 9.01597 6.68528 9.06629 6.68562C9.10352 6.68604 9.14075 6.68646 9.17912 6.68689C9.18017 6.65024 9.18123 6.6136 9.18232 6.57584C9.2136 5.52712 9.27012 4.48154 9.33759 3.43467C9.35048 3.23408 9.36311 3.03348 9.37577 2.83288C9.40035 2.44387 9.42519 2.05487 9.45021 1.66589C9.39882 1.65823 9.34744 1.65058 9.29449 1.64269C9.04547 1.59662 8.91078 1.47095 8.74536 1.28386C8.61282 1.02816 8.61638 0.792992 8.69114 0.519792C8.9032 0.115757 9.13069 0.00828634 9.57592 0.00744882ZM11.0768 1.66589C11.0768 3.32282 11.0768 4.97975 11.0768 6.68689C11.4346 6.68689 11.7925 6.68689 12.1612 6.68689C12.2699 6.46188 12.3783 6.23674 12.4865 6.01151C12.5175 5.94735 12.5486 5.88319 12.5805 5.81708C12.6099 5.75588 12.6392 5.69467 12.6695 5.63161C12.6967 5.57502 12.724 5.51843 12.7521 5.46013C12.819 5.33085 12.819 5.33085 12.8118 5.21334C12.9549 5.19533 13.0981 5.17732 13.2456 5.15876C13.2456 4.65448 13.2456 4.15019 13.2456 3.63063C13.013 3.61262 12.7804 3.59461 12.5407 3.57605C12.3781 3.4669 12.3781 3.4669 12.334 3.28271C12.3243 3.0932 12.3233 3.01661 12.4323 2.86656C12.5696 2.79747 12.6655 2.80468 12.8192 2.80406C12.8773 2.80371 12.9354 2.80336 12.9952 2.803C13.0582 2.80294 13.1212 2.80288 13.186 2.80282C13.2505 2.80264 13.3149 2.80246 13.3813 2.80227C13.5178 2.80199 13.6544 2.80187 13.7909 2.80187C14.0002 2.80176 14.2095 2.80076 14.4188 2.79973C14.5512 2.79957 14.6836 2.79946 14.816 2.79941C14.8789 2.79902 14.9417 2.79863 15.0065 2.79822C15.0648 2.79839 15.123 2.79856 15.183 2.79873C15.2344 2.79865 15.2857 2.79857 15.3386 2.79849C15.4686 2.81199 15.4686 2.81199 15.6312 2.92114C15.6765 3.1106 15.7048 3.24622 15.6414 3.43279C15.577 3.52148 15.577 3.52148 15.4686 3.57605C15.2359 3.59406 15.0033 3.61207 14.7637 3.63063C14.7637 4.13491 14.7637 4.63919 14.7637 5.15876C14.9068 5.17677 15.05 5.19478 15.1975 5.21334C15.2096 5.25512 15.2218 5.29691 15.2343 5.33997C15.3321 5.61418 15.4578 5.87225 15.5838 6.13431C15.6091 6.18749 15.6345 6.24068 15.6606 6.29548C15.723 6.42603 15.7855 6.55647 15.8481 6.68689C16.2059 6.68689 16.5638 6.68689 16.9325 6.68689C16.9325 5.02996 16.9325 3.37303 16.9325 1.66589C15.0001 1.66589 13.0677 1.66589 11.0768 1.66589Z" fill="#8A8A8E"/>
<path d="M9.57592 0.00744882C9.63504 0.00700793 9.63504 0.00700793 9.69535 0.00655814C9.82713 0.00577864 9.95888 0.00616655 10.0907 0.00655526C10.1853 0.00624399 10.2799 0.00586391 10.3744 0.0054202C10.6312 0.00444057 10.888 0.00450553 11.1447 0.00481672C11.3591 0.00498532 11.5735 0.00465312 11.7878 0.00432342C12.2936 0.00355665 12.7993 0.00364229 13.3051 0.00426349C13.8268 0.00489013 14.3484 0.00412188 14.8701 0.00265915C15.3181 0.00145012 15.7661 0.00108761 16.2141 0.00140807C16.4816 0.00159208 16.7492 0.00145939 17.0167 0.000521148C17.2683 -0.000322642 17.5198 -0.000107746 17.7714 0.000919834C17.8637 0.00112113 17.956 0.000950966 18.0483 0.000380306C18.1744 -0.000339872 18.3004 0.000288814 18.4265 0.00125304C18.497 0.00126447 18.5675 0.00127589 18.6401 0.00128766C18.9113 0.0402809 19.083 0.156418 19.2537 0.369707C19.3757 0.654048 19.3986 0.86473 19.3147 1.15765C19.1777 1.3935 19.0221 1.54201 18.7759 1.66589C18.6743 1.671 18.5724 1.67254 18.4706 1.67245C18.4057 1.67253 18.3407 1.6726 18.2738 1.67268C18.2015 1.67249 18.1292 1.67229 18.0569 1.67209C17.981 1.67207 17.9051 1.67208 17.8293 1.67211C17.6229 1.67213 17.4166 1.6718 17.2103 1.67142C16.9948 1.67108 16.7793 1.67105 16.5638 1.67099C16.1555 1.67082 15.7473 1.67037 15.3391 1.66982C14.7875 1.6691 14.236 1.6688 13.6845 1.66848C12.8152 1.66797 11.946 1.66688 11.0768 1.66589C11.0768 3.32282 11.0768 4.97975 11.0768 6.68689C10.4506 6.68689 9.82433 6.68689 9.17912 6.68689C9.21279 5.60091 9.26772 4.51875 9.33759 3.43467C9.35048 3.23408 9.36311 3.03348 9.37577 2.83288C9.40035 2.44387 9.42519 2.05487 9.45021 1.66589C9.39882 1.65823 9.34744 1.65058 9.29449 1.64269C9.04547 1.59662 8.91078 1.47095 8.74536 1.28386C8.61282 1.02816 8.61638 0.792992 8.69114 0.519792C8.9032 0.115757 9.13069 0.00828634 9.57592 0.00744882Z" fill="#8A8A8E"/>
<path d="M6.72281 21.3607C6.8018 21.3604 6.8018 21.3604 6.88239 21.3601C6.94038 21.3601 6.99837 21.3601 7.05812 21.3602C7.15037 21.36 7.15037 21.36 7.24448 21.3597C7.45164 21.3592 7.6588 21.3591 7.86597 21.3591C8.01405 21.3588 8.16214 21.3585 8.31022 21.3582C8.71327 21.3575 9.11633 21.3572 9.51939 21.3569C9.77098 21.3568 10.0226 21.3566 10.2742 21.3563C10.9705 21.3556 11.6669 21.3551 12.3633 21.3549C12.4078 21.3549 12.4524 21.3549 12.4984 21.3549C12.5654 21.3548 12.5654 21.3548 12.6338 21.3548C12.7243 21.3548 12.8148 21.3548 12.9054 21.3547C12.9503 21.3547 12.9952 21.3547 13.0415 21.3547C13.7695 21.3545 14.4975 21.3535 15.2256 21.3523C15.9727 21.351 16.7199 21.3503 17.4671 21.3502C17.8867 21.3502 18.3063 21.3499 18.726 21.3489C19.0832 21.348 19.4405 21.3478 19.7978 21.3482C19.9801 21.3484 20.1624 21.3483 20.3447 21.3476C20.5423 21.3469 20.7398 21.3472 20.9374 21.3478C20.9951 21.3474 21.0529 21.3469 21.1124 21.3465C21.4542 21.3488 21.6576 21.3791 21.9092 21.6273C22.0008 21.7984 21.9964 21.9352 21.9952 22.1285C21.9956 22.1943 21.996 22.2601 21.9965 22.3278C21.9732 22.5283 21.9358 22.6294 21.8122 22.7868C21.6483 22.8893 21.5237 22.9097 21.3323 22.9099C21.2792 22.9102 21.226 22.9105 21.1713 22.9108C21.113 22.9106 21.0547 22.9104 20.9947 22.9102C20.9327 22.9104 20.8707 22.9106 20.8069 22.9108C20.6348 22.9113 20.4627 22.9113 20.2906 22.9111C20.1051 22.9109 19.9195 22.9114 19.7339 22.9118C19.3704 22.9125 19.0068 22.9126 18.6432 22.9125C18.3478 22.9124 18.0523 22.9125 17.7568 22.9127C17.7148 22.9128 17.6728 22.9128 17.6295 22.9128C17.5441 22.9129 17.4587 22.913 17.3734 22.913C16.5725 22.9136 15.7716 22.9135 14.9707 22.9132C14.2377 22.9129 13.5048 22.9135 12.7719 22.9145C12.0196 22.9156 11.2672 22.916 10.5149 22.9158C10.0924 22.9157 9.66997 22.9159 9.2475 22.9166C8.88786 22.9173 8.52822 22.9174 8.16857 22.9167C7.98504 22.9164 7.80153 22.9164 7.618 22.917C7.41913 22.9175 7.22029 22.9171 7.02142 22.9164C6.96329 22.9168 6.90515 22.9172 6.84526 22.9176C6.35683 22.914 6.35683 22.914 6.14284 22.7323C5.94651 22.462 5.99806 22.0655 6.0344 21.7499C6.10725 21.59 6.16649 21.5363 6.3055 21.4224C6.46202 21.3699 6.5602 21.3609 6.72281 21.3607Z" fill="#8A8A8E"/>
<path d="M8.9177 26.2175C8.96278 26.2173 9.00787 26.2171 9.05432 26.217C9.20562 26.2165 9.35691 26.2164 9.5082 26.2163C9.61659 26.2161 9.72498 26.2158 9.83337 26.2155C10.128 26.2148 10.4226 26.2144 10.7172 26.2142C10.9013 26.214 11.0853 26.2138 11.2694 26.2136C11.8452 26.2128 12.4209 26.2123 12.9967 26.2121C13.6615 26.2118 14.3263 26.2109 14.991 26.2093C15.5048 26.2081 16.0186 26.2076 16.5324 26.2075C16.8393 26.2074 17.1462 26.2071 17.4531 26.2062C17.7418 26.2053 18.0305 26.2051 18.3192 26.2056C18.4251 26.2057 18.5309 26.2054 18.6368 26.2049C18.7815 26.2042 18.9262 26.2045 19.0709 26.2051C19.1127 26.2046 19.1545 26.2042 19.1975 26.2037C19.5045 26.2066 19.7709 26.2615 20.009 26.4726C20.2063 26.7404 20.2521 26.8959 20.2568 27.2246C20.2598 27.3323 20.2598 27.3323 20.2629 27.4422C20.2367 27.6715 20.184 27.7567 20.023 27.917C19.8456 28.0062 19.6495 27.9796 19.4546 27.9796C19.4064 27.9798 19.3583 27.98 19.3086 27.9802C19.1462 27.9808 18.9839 27.981 18.8215 27.9812C18.7055 27.9816 18.5894 27.9819 18.4734 27.9823C18.1575 27.9833 17.8416 27.9838 17.5257 27.9843C17.3285 27.9846 17.1313 27.9849 16.9341 27.9852C16.3175 27.9863 15.7009 27.9871 15.0843 27.9875C14.3717 27.988 13.6591 27.9895 12.9465 27.9917C12.3962 27.9933 11.846 27.9941 11.2957 27.9943C10.9668 27.9945 10.638 27.9949 10.3091 27.9963C9.99972 27.9976 9.6904 27.9978 9.38105 27.9973C9.26742 27.9972 9.15378 27.9976 9.04015 27.9983C8.88519 27.9993 8.73029 27.9989 8.57533 27.9982C8.5302 27.9988 8.48507 27.9994 8.43858 28C8.22268 27.9976 8.11924 27.9873 7.93253 27.8676C7.74278 27.6684 7.7575 27.5204 7.75247 27.2484C7.75044 27.1772 7.74842 27.106 7.74633 27.0327C7.77959 26.7341 7.90674 26.5721 8.12184 26.3718C8.37358 26.2008 8.62158 26.2171 8.9177 26.2175Z" fill="#8A8A8E"/>
<path d="M9.45021 1.66589C9.98698 1.66589 10.5238 1.66589 11.0768 1.66589C11.0768 3.32282 11.0768 4.97975 11.0768 6.68689C10.4506 6.68689 9.82433 6.68689 9.17912 6.68689C9.21279 5.60091 9.26772 4.51875 9.33759 3.43467C9.35048 3.23408 9.36311 3.03348 9.37577 2.83288C9.40033 2.44387 9.42528 2.05488 9.45021 1.66589Z" fill="#8A8A8E"/>
<path d="M12.8183 2.74862C12.8763 2.74809 12.9342 2.74757 12.9938 2.74703C13.0566 2.7468 13.1194 2.74656 13.1841 2.74633C13.2485 2.74601 13.3128 2.7457 13.379 2.74538C13.5153 2.74487 13.6516 2.74451 13.7879 2.7443C13.9966 2.74377 14.2053 2.74208 14.414 2.74036C14.5463 2.74 14.6785 2.73971 14.8107 2.7395C14.9046 2.73849 14.9046 2.73849 15.0004 2.73746C15.0586 2.73763 15.1169 2.73779 15.1769 2.73796C15.2537 2.73766 15.2537 2.73766 15.332 2.73736C15.4952 2.76133 15.5683 2.8055 15.6854 2.92114C15.7453 3.13799 15.7622 3.25351 15.6685 3.46008C15.577 3.57605 15.577 3.57605 15.4686 3.63063C15.2359 3.63063 15.0033 3.63063 14.7637 3.63063C14.7637 4.13491 14.7637 4.63919 14.7637 5.15876C14.2627 5.15876 13.7617 5.15876 13.2456 5.15876C13.2456 4.65448 13.2456 4.15019 13.2456 3.63063C13.013 3.63063 12.7804 3.63063 12.5407 3.63063C12.3238 3.4669 12.3238 3.4669 12.273 3.28271C12.2693 3.06439 12.2991 2.98078 12.4323 2.81199C12.5692 2.74308 12.6651 2.74973 12.8183 2.74862Z" fill="#8A8A8E"/>
<path d="M13.3995 5.14767C13.4471 5.14736 13.4947 5.14705 13.5438 5.14673C13.6445 5.14621 13.7453 5.14586 13.8461 5.14565C14.0004 5.14512 14.1547 5.14342 14.3091 5.1417C14.4069 5.14135 14.5047 5.14106 14.6025 5.14085C14.6488 5.14018 14.695 5.1395 14.7427 5.13881C15.0664 5.14004 15.0664 5.14004 15.1793 5.23358C15.2746 5.35058 15.3334 5.47264 15.398 5.60923C15.4244 5.66484 15.4508 5.72045 15.478 5.77775C15.5051 5.83576 15.5321 5.89376 15.56 5.95352C15.5878 6.01174 15.6155 6.06996 15.644 6.12994C15.8481 6.56296 15.8481 6.56296 15.8481 6.68689C14.6314 6.68689 13.4147 6.68689 12.1612 6.68689C12.3445 6.13335 12.3445 6.13335 12.4426 5.93476C12.4637 5.89227 12.4847 5.84978 12.5063 5.806C12.5277 5.7635 12.5491 5.72101 12.5712 5.67723C12.6037 5.61096 12.6037 5.61096 12.6368 5.54335C12.6577 5.50142 12.6786 5.45949 12.7002 5.41629C12.719 5.37855 12.7379 5.3408 12.7573 5.30192C12.8926 5.08215 13.172 5.14881 13.3995 5.14767Z" fill="#8A8A8E"/>
<path d="M13.2456 3.63063C13.7465 3.63063 14.2475 3.63063 14.7637 3.63063C14.7637 4.13491 14.7637 4.63919 14.7637 5.15876C14.2627 5.15876 13.7617 5.15876 13.2456 5.15876C13.2456 4.65448 13.2456 4.15019 13.2456 3.63063Z" fill="#8A8A8E"/>
</svg>
