<svg width="28" height="28" viewBox="0 0 28 28" fill="none" xmlns="http://www.w3.org/2000/svg">
<path fill-rule="evenodd" clip-rule="evenodd" d="M24 3.99992C24.3905 4.39045 24.3905 5.02361 24 5.41414L4.91414 24.5C4.52362 24.8906 3.89045 24.8906 3.49993 24.5C3.1094 24.1095 3.1094 23.4763 3.49993 23.0858L22.5858 3.99992C22.9763 3.6094 23.6095 3.6094 24 3.99992Z" fill="#8A8A8E"/>
<path fill-rule="evenodd" clip-rule="evenodd" d="M12.1099 12.3041L11.453 12.9611L11.0651 13.3402L9.05043 12.3457L7.91176 11.6797L5.44106 13.0977C4.97914 13.3555 4.50649 13.2266 4.30238 12.8398C4.0768 12.3779 4.2809 11.9697 4.73207 11.7441L6.39711 10.8096L4.47426 9.70312C4.02309 9.44531 3.86195 8.96191 4.13051 8.5C4.38832 8.05957 4.87172 7.95215 5.33363 8.20996L7.26723 9.31641L7.235 7.4043C7.20277 6.89941 7.46059 6.5127 7.97621 6.50195C8.4059 6.48047 8.73891 6.81348 8.74965 7.3291L8.76039 10.1865L9.90981 10.8525L12.1099 12.3041ZM12.8102 9.17676V7.85547L10.3395 6.42676C9.88832 6.1582 9.77016 5.69629 10.0065 5.32031C10.275 4.89062 10.7262 4.8584 11.1559 5.1377L12.8102 6.11523V3.90234C12.8102 3.36523 13.1539 3 13.6588 3C14.1959 3 14.5182 3.36523 14.5182 3.90234V6.11523L16.1618 5.1377C16.5807 4.8584 17.0534 4.89062 17.3219 5.32031C17.5475 5.69629 17.4401 6.1582 16.9889 6.42676L14.5182 7.85547V9.17676L14.4916 9.92157L12.9474 11.4509L12.8102 9.17676ZM13.6588 25.0215C13.1539 25.0215 12.8102 24.6455 12.8102 24.1084V21.8955L11.1559 22.873C10.7262 23.1523 10.275 23.1201 10.0065 22.6904C9.77016 22.3252 9.88832 21.8633 10.3395 21.5947L12.8102 20.1553V18.834L12.9817 16L14.2926 15.1172L14.5182 18.834V20.166L16.9889 21.584C17.4401 21.8525 17.5475 22.3252 17.3219 22.6904C17.0426 23.1201 16.5807 23.1523 16.1618 22.873L14.5182 21.8955V24.1084C14.5182 24.6455 14.1959 25.0215 13.6588 25.0215ZM14.9049 14.0107L18.2672 15.6758L19.4166 16.3418L21.8981 14.9131C22.3493 14.666 22.8004 14.7949 23.0153 15.1816C23.2516 15.6221 23.0475 16.041 22.5963 16.2666L20.9313 17.2119L22.8434 18.3184C23.3053 18.5762 23.4342 19.0596 23.1871 19.5215C22.9293 19.9619 22.4567 20.0801 21.9948 19.8115L20.0612 18.6836L20.0934 20.6064C20.1256 21.1113 19.8678 21.5088 19.3522 21.5195C18.9225 21.541 18.5788 21.1973 18.5788 20.6816L18.568 17.8242L17.4186 17.1689L14.2926 15.1172L14.9049 14.0107ZM14.9049 14.0107L20.0612 9.31641L21.9948 8.20996C22.4674 7.94141 22.9401 8.05957 23.1979 8.5C23.4557 8.96191 23.3161 9.43457 22.8541 9.70312L20.9313 10.8096L22.5963 11.7441C23.0475 11.9697 23.2516 12.3887 23.026 12.8291C22.8112 13.2266 22.3385 13.3555 21.8873 13.0977L19.4166 11.6797L18.2672 12.3457L14.9049 14.0107ZM7.96547 21.5195C8.4059 21.5303 8.73891 21.1973 8.74965 20.6816L7.235 20.6064C7.20277 21.1113 7.46059 21.5088 7.96547 21.5195ZM4.13051 19.5107C3.8727 19.0703 4.02309 18.5762 4.47426 18.3184L6.39711 17.2119L4.73207 16.2666C4.2809 16.041 4.0768 15.6436 4.32387 15.1816C4.51723 14.7949 4.97914 14.6553 5.43031 14.9131L7.90102 16.3418L8.28692 16.1203L4.52609 19.8856C4.3716 19.816 4.23547 19.6913 4.13051 19.5107Z" fill="#8A8A8E"/>
</svg>
