<svg width="30" height="26" viewBox="0 0 30 26" fill="none" xmlns="http://www.w3.org/2000/svg">
<path d="M3 14.2793V19.4678C3 20.0655 3.07842 20.5862 3.23488 21.03C3.34126 21.3317 3.71837 21.3822 3.94854 21.16L11.6095 13.764C11.933 13.4517 11.7119 12.9043 11.2622 12.9043H6.98535C6.41602 12.9043 6.29785 12.292 6.73828 11.959L14.5693 5.99707C15.4287 5.32031 16.1592 5.09473 17.4268 5.09473H20.1058C20.3591 5.09473 20.603 4.9986 20.7882 4.82575L21.8169 3.86551C22.1486 3.55586 21.9295 3 21.4757 3H17.5234C15.7188 3 14.5693 3.38672 13.1191 4.48242L4.75098 10.7988C3.45117 11.7871 3 12.6787 3 14.2793Z" fill="#3C3C43" fill-opacity="0.6"/>
<path d="M26.1924 19.4678V6.40527C26.1924 5.26193 25.883 4.39705 25.2771 3.82502L23.7299 5.5C23.9639 5.7506 24.0869 6.11526 24.0869 6.58789V11.4219C24.0869 12.3564 23.5498 12.9043 22.6152 12.9043H16.5L6.52344 22.9482H22.6689C25.0215 22.9482 26.1924 21.7881 26.1924 19.4678Z" fill="#3C3C43" fill-opacity="0.6"/>
<path d="M27.5 1L3.5 25" stroke="#8A8A8E" stroke-width="2" stroke-linecap="round"/>
</svg>
