<svg width="38" height="16" viewBox="0 0 38 16" fill="none" xmlns="http://www.w3.org/2000/svg">
<path d="M7.39515 4.14809C7.27952 3.96093 7.12875 3.79793 6.95115 3.66809C6.77178 3.54545 6.57525 3.45002 6.36795 3.38489C6.14271 3.3112 5.91016 3.26212 5.67435 3.23849C5.39838 3.21159 5.12122 3.19878 4.84395 3.20009H2.44395C2.38832 3.19484 2.3322 3.2008 2.27891 3.21763C2.22562 3.23446 2.17626 3.26181 2.13374 3.29807C2.09121 3.33433 2.0564 3.37875 2.03136 3.4287C2.00632 3.47866 1.99156 3.53313 1.98795 3.58889C1.98795 3.58889 1.98795 3.60329 1.98795 3.61049V7.50809C2.32069 8.22209 2.87325 8.81082 3.56475 9.18809V8.40569C3.55948 8.34532 3.56617 8.28451 3.58444 8.22673C3.60271 8.16895 3.63219 8.11534 3.6712 8.06897C3.71021 8.0226 3.75799 7.98439 3.81179 7.9565C3.8656 7.92862 3.92437 7.91163 3.98475 7.90649H4.70475C5.68715 7.90649 6.43675 7.70089 6.95355 7.28969C7.47035 6.87849 7.73275 6.26889 7.74075 5.46089C7.74159 5.22804 7.71419 4.99595 7.65915 4.76969C7.60429 4.54993 7.5152 4.34017 7.39515 4.14809ZM5.98875 6.15209C5.90505 6.29612 5.78063 6.41218 5.63115 6.48569C5.46918 6.56305 5.29417 6.60945 5.11515 6.62249C4.91851 6.64698 4.72051 6.659 4.52235 6.65849H3.83115C3.66555 6.65849 3.56235 6.52409 3.56235 6.32729V4.71929C3.55996 4.68401 3.5654 4.64864 3.57828 4.6157C3.59115 4.58277 3.61115 4.55309 3.63683 4.52878C3.66251 4.50447 3.69325 4.48614 3.72684 4.4751C3.76044 4.46405 3.79605 4.46057 3.83115 4.46489H4.52235C4.74635 4.46489 4.95755 4.47129 5.15595 4.48409C5.33277 4.49258 5.50631 4.53495 5.66715 4.60889C5.81513 4.67478 5.93858 4.78563 6.01995 4.92569C6.11183 5.1135 6.15398 5.32174 6.14235 5.53049C6.14702 5.74687 6.094 5.96058 5.98875 6.14969V6.15209ZM3.56715 9.42329C2.9753 9.20976 2.4366 8.87082 1.98795 8.42969V10.3137C1.98292 10.3496 1.98521 10.3861 1.99466 10.4211C2.00411 10.4561 2.02054 10.4888 2.04296 10.5173C2.06538 10.5457 2.09332 10.5694 2.12511 10.5868C2.1569 10.6042 2.19188 10.615 2.22795 10.6185H3.31275C3.60075 10.6185 3.56715 10.3113 3.56715 10.3113V9.42329ZM18.476 5.25209H17.54C17.4506 5.24625 17.3621 5.2722 17.2901 5.32535C17.218 5.3785 17.1671 5.45542 17.1464 5.54249L16.0592 8.53769C16.0592 8.53769 15.0992 5.80889 15.0272 5.59769C15.0069 5.50024 14.954 5.41262 14.8772 5.34934C14.8004 5.28605 14.7043 5.2509 14.6048 5.24969H13.7432C13.436 5.24969 13.436 5.48969 13.4768 5.58329C13.5176 5.67689 14.696 8.90729 15.1568 10.1433C15.2293 10.2954 15.2802 10.457 15.308 10.6233C15.2781 10.7874 15.2161 10.944 15.1256 11.0841C15.0905 11.1435 15.0504 11.1997 15.0056 11.2521C15.8936 10.9881 16.9256 10.0257 17.444 8.98649C17.9672 7.54649 18.656 5.62649 18.6872 5.52809C18.7208 5.37689 18.7208 5.25209 18.476 5.25209ZM14.3048 11.5449C14.2245 11.5427 14.1444 11.5363 14.0648 11.5257C13.9664 11.5113 13.7792 11.5257 13.7792 11.6937V12.4137C13.7792 12.6897 13.9136 12.7089 13.9832 12.7281C14.2054 12.7769 14.4324 12.801 14.66 12.8001C14.9289 12.8072 15.1958 12.7521 15.44 12.6393C15.6633 12.5264 15.8617 12.3697 16.0232 12.1785C16.2062 11.9692 16.3611 11.7368 16.484 11.4873C16.6168 11.2217 16.7432 10.9281 16.8632 10.6065L17.0024 10.2249C16.724 10.5009 15.4952 11.6601 14.3048 11.5449ZM12.8888 6.11369C12.8378 5.99242 12.7681 5.87986 12.6824 5.78009C12.5956 5.68768 12.4972 5.60699 12.3896 5.54009C12.2733 5.46091 12.1495 5.39339 12.02 5.33849C11.8881 5.28739 11.7525 5.24647 11.6144 5.21609C11.4563 5.18112 11.2958 5.15786 11.1344 5.14649C10.9616 5.12889 10.768 5.12009 10.5536 5.12009C9.12315 5.12009 8.30875 5.57129 8.11035 6.47369C8.10189 6.50733 8.10081 6.5424 8.1072 6.57649C8.1136 6.61058 8.1273 6.64288 8.14737 6.67116C8.16745 6.69945 8.19341 6.72304 8.22348 6.74033C8.25355 6.75762 8.28701 6.76818 8.32155 6.77129H9.20235C9.44235 6.77129 9.44235 6.69689 9.53355 6.49049C9.57352 6.37812 9.64522 6.27975 9.73995 6.20729C9.96501 6.06202 10.2312 5.9938 10.4984 6.01289C10.7475 5.98743 10.9978 6.04936 11.2064 6.18809C11.3654 6.33658 11.4594 6.54186 11.468 6.75929C11.468 7.05689 11.3768 7.25369 11.0072 7.25369C10.1312 7.22249 9.19035 7.32089 8.65995 7.62569C8.39885 7.78507 8.18453 8.01064 8.0387 8.27955C7.89287 8.54845 7.82071 8.85112 7.82955 9.15689C7.82351 9.39507 7.87195 9.63148 7.97115 9.84809C8.0646 10.0363 8.20009 10.2006 8.36715 10.3281C8.54251 10.4711 8.74496 10.5772 8.96235 10.6401C9.20794 10.7066 9.46153 10.7389 9.71595 10.7361C10.0582 10.7414 10.3992 10.6928 10.7264 10.5921C11.0155 10.4736 11.2888 10.3196 11.54 10.1337V10.3017C11.54 10.4673 11.5904 10.6161 11.78 10.6161H12.8C13.0064 10.6161 13.0544 10.4697 13.0544 10.2873V7.14569C13.0556 6.94974 13.0419 6.75398 13.0136 6.56009C12.9909 6.40663 12.949 6.25665 12.8888 6.11369ZM11.4944 9.20009C11.4944 9.20009 11.2304 9.75209 10.2944 9.75209C10.0699 9.76242 9.848 9.70106 9.66075 9.57689C9.57833 9.51289 9.51321 9.42931 9.4713 9.33375C9.42939 9.23819 9.41201 9.13368 9.42075 9.02969C9.41043 8.89005 9.44277 8.75056 9.51349 8.6297C9.5842 8.50885 9.68996 8.41231 9.81675 8.35289C10.1954 8.20743 10.5994 8.13969 11.0048 8.15369C11.0668 8.14433 11.1301 8.14852 11.1904 8.16597C11.2506 8.18341 11.3064 8.2137 11.3538 8.25475C11.4013 8.2958 11.4392 8.34664 11.4652 8.40377C11.4911 8.4609 11.5043 8.52296 11.504 8.58569L11.4944 9.20009Z" fill="#333333"/>
<path d="M34.8205 7.17942C34.9388 7.3696 35.0014 7.58908 35.0014 7.81302C35.0014 8.03696 34.9388 8.25644 34.8205 8.44662C34.5805 8.81142 33.2725 10.2082 32.8405 10.657C32.4661 11.0458 31.9597 11.4394 31.4581 11.4394H21.0685C19.6621 11.4394 19.5781 10.9594 19.5781 9.88902V5.52342C19.5781 4.42662 19.9021 4.10742 20.8645 4.10742H31.4821C31.9789 4.10742 32.4229 4.36182 32.9221 4.87542C33.3589 5.31462 34.6477 6.92022 34.8205 7.17942Z" fill="#33CCCC"/>
<path d="M21.9366 5.79455V5.76815C21.9366 5.62655 21.9366 5.48975 21.6966 5.48975H20.8254C20.6214 5.48975 20.6118 5.60015 20.6118 5.77295V6.92495C20.9555 6.44652 21.4101 6.05863 21.9366 5.79455Z" fill="white"/>
<path d="M27.7711 9.96091V9.89851V7.11931C27.7711 5.95611 27.2575 5.37451 26.2303 5.37451C25.9444 5.3779 25.6651 5.46102 25.4239 5.61451C25.1581 5.78031 24.9206 5.98775 24.7207 6.22891C24.6302 5.96826 24.4542 5.74583 24.2215 5.59771C23.9567 5.4518 23.6571 5.38125 23.3551 5.39371C22.9109 5.39538 22.4797 5.54389 22.1287 5.81611C22.0519 5.89291 20.6095 7.01611 20.6095 8.18731V9.96571C20.6095 10.0209 20.5807 10.2369 20.8231 10.2369H21.7279C22.0087 10.2369 21.9823 10.0521 21.9823 9.97531V7.09531C22.1335 6.89131 22.4431 6.40411 22.9543 6.40411C23.036 6.39667 23.1183 6.41121 23.1926 6.44624C23.2668 6.48126 23.3304 6.53549 23.3767 6.60331C23.4793 6.80822 23.5241 7.03723 23.5063 7.26571V9.50971V9.97051C23.5063 10.0257 23.4775 10.2417 23.7199 10.2417H24.6151C24.8959 10.2417 24.8695 10.0569 24.8695 9.98011V9.91771V7.08571C25.0327 6.88171 25.3495 6.39451 25.8415 6.39451C25.9242 6.38774 26.0072 6.40253 26.0825 6.43745C26.1578 6.47236 26.2228 6.5262 26.2711 6.59371C26.3753 6.7981 26.421 7.02736 26.4031 7.25611V9.50011V9.96091C26.4031 10.0161 26.3743 10.2321 26.6167 10.2321H27.5215C27.8047 10.2177 27.7711 10.0353 27.7711 9.96091Z" fill="white"/>
<path d="M32.7608 8.8304C32.6071 9.24382 32.3254 9.59736 31.9567 9.83954C31.588 10.0817 31.1517 10.1999 30.7112 10.1768C29.3288 10.1768 28.4072 9.236 28.4072 7.8248C28.4072 6.4136 29.3672 5.4248 30.6632 5.4248C31.9592 5.4248 32.8232 6.3224 32.8784 7.7696C32.8784 7.9544 32.8328 8.1176 32.6 8.1176H29.6672C29.6864 8.8928 30.0584 9.3176 30.7208 9.3176C30.8967 9.32201 31.0701 9.27599 31.2207 9.18498C31.3712 9.09397 31.4926 8.96177 31.5704 8.804C31.6011 8.75936 31.6424 8.72304 31.6905 8.69832C31.7387 8.6736 31.7923 8.66126 31.8464 8.6624H32.6024C32.6251 8.66133 32.6477 8.66538 32.6687 8.67425C32.6896 8.68312 32.7082 8.69659 32.7232 8.71365C32.7382 8.73071 32.7491 8.75093 32.7552 8.77281C32.7613 8.79468 32.7624 8.81765 32.7584 8.84L32.7608 8.8304ZM30.668 6.32C30.1184 6.32 29.7464 6.7016 29.6648 7.3304H31.6328C31.5824 6.7808 31.2848 6.32 30.668 6.32Z" fill="white"/>
</svg>
