<svg width="13" height="13" viewBox="0 0 13 13" fill="none" xmlns="http://www.w3.org/2000/svg">
<path opacity="0.6" d="M9.68945 12.644C7.88037 12.644 5.66504 11.5142 3.62744 9.47656C1.57715 7.42627 0.459961 5.21729 0.459961 3.40186C0.459961 2.30371 0.758301 1.57373 1.48193 0.92627C1.53271 0.881836 1.5835 0.837402 1.64062 0.786621C2.06592 0.405762 2.48486 0.22168 2.88477 0.228027C3.3418 0.234375 3.76709 0.494629 4.16064 1.05957L5.44287 2.90674C5.83643 3.47168 5.88086 4.14453 5.34766 4.67773L4.86523 5.1665C4.71924 5.3125 4.71289 5.43311 4.79541 5.5791C5.04932 5.979 5.52539 6.5249 6.02051 7.01367C6.49023 7.4834 7.18213 8.08643 7.5249 8.30225C7.66455 8.39111 7.7915 8.38477 7.9375 8.23877L8.42627 7.75C8.95947 7.22314 9.63232 7.26758 10.1973 7.66113L12.0444 8.94336C12.6094 9.33691 12.876 9.76221 12.876 10.2192C12.876 10.6191 12.6982 11.0381 12.3174 11.4634C12.2729 11.5142 12.2222 11.5713 12.1714 11.6221C11.5303 12.3457 10.8003 12.644 9.68945 12.644ZM9.6958 11.6665C10.4004 11.6538 11.0034 11.4126 11.4351 10.9175C11.4731 10.873 11.4985 10.8413 11.5366 10.7969C11.7017 10.6064 11.7905 10.4033 11.7905 10.2192C11.7905 10.0288 11.7144 9.87012 11.5303 9.74316L9.68311 8.51172C9.47998 8.38477 9.26416 8.37207 9.06738 8.56885L8.50879 9.12744C8.0708 9.56543 7.5376 9.53369 7.1123 9.21631C6.61719 8.84814 5.84912 8.1626 5.3667 7.67383C4.87793 7.19141 4.24951 6.48047 3.8877 5.9917C3.57031 5.56641 3.53857 5.0332 3.97656 4.59521L4.53516 4.03662C4.73193 3.83984 4.71924 3.61768 4.58594 3.4209L3.35449 1.57373C3.23389 1.3833 3.06885 1.31348 2.88477 1.31348C2.70068 1.31348 2.49756 1.40234 2.30713 1.56738C2.2627 1.59912 2.23096 1.63086 2.18652 1.66895C1.69141 2.10059 1.44385 2.70361 1.43115 3.40186C1.39941 5.02051 2.70068 7.16602 4.35742 8.81641C6.00146 10.4541 8.07715 11.6982 9.6958 11.6665Z" fill="#1A1A1A"/>
</svg>
