<svg width="9" height="15" viewBox="0 0 9 15" fill="none" xmlns="http://www.w3.org/2000/svg">
<path opacity="0.6" d="M8.32031 7.35938C8.32031 7.55469 8.24219 7.72656 8.09375 7.875L1.90625 13.9297C1.76562 14.0703 1.59375 14.1406 1.39062 14.1406C0.992188 14.1406 0.679688 13.8359 0.679688 13.4297C0.679688 13.2266 0.757812 13.0547 0.882812 12.9219L6.57031 7.35938L0.882812 1.79688C0.757812 1.66406 0.679688 1.48438 0.679688 1.28906C0.679688 0.882812 0.992188 0.578125 1.39062 0.578125C1.59375 0.578125 1.76562 0.648438 1.90625 0.78125L8.09375 6.84375C8.24219 6.98438 8.32031 7.16406 8.32031 7.35938Z" fill="#1A1A1A"/>
</svg>
