<svg width="23" height="23" viewBox="0 0 23 23" fill="none" xmlns="http://www.w3.org/2000/svg">
<path d="M11.5 22.3408C5.43066 22.3408 0.40332 17.3242 0.40332 11.2441C0.40332 5.1748 5.41992 0.147461 11.4893 0.147461C17.5693 0.147461 22.5967 5.1748 22.5967 11.2441C22.5967 17.3242 17.5693 22.3408 11.5 22.3408ZM11.5 20.1602C16.4414 20.1602 20.416 16.1855 20.416 11.2441C20.416 6.30273 16.4307 2.33887 11.4893 2.33887C6.54785 2.33887 2.59473 6.30273 2.59473 11.2441C2.59473 16.1855 6.55859 20.1602 11.5 20.1602ZM11.4893 6.19531C10.9414 6.19531 10.4795 5.74414 10.4795 5.18555C10.4795 4.6377 10.9414 4.17578 11.4893 4.17578C12.0479 4.17578 12.499 4.6377 12.499 5.18555C12.499 5.74414 12.0479 6.19531 11.4893 6.19531ZM14.8838 7.22656C14.3252 7.22656 13.874 6.77539 13.874 6.2168C13.874 5.66895 14.3252 5.20703 14.8838 5.20703C15.4316 5.20703 15.8936 5.66895 15.8936 6.2168C15.8936 6.77539 15.4316 7.22656 14.8838 7.22656ZM8.10547 7.22656C7.54688 7.22656 7.0957 6.77539 7.0957 6.2168C7.0957 5.66895 7.54688 5.20703 8.10547 5.20703C8.65332 5.20703 9.11523 5.66895 9.11523 6.2168C9.11523 6.77539 8.65332 7.22656 8.10547 7.22656ZM17.1826 9.97656C16.624 9.97656 16.1621 9.51465 16.1621 8.9668C16.1621 8.4082 16.624 7.94629 17.1826 7.94629C17.7305 7.94629 18.1924 8.4082 18.1924 8.9668C18.1924 9.51465 17.7305 9.97656 17.1826 9.97656ZM5.80664 9.97656C5.24805 9.97656 4.79688 9.51465 4.79688 8.9668C4.79688 8.4082 5.24805 7.94629 5.80664 7.94629C6.35449 7.94629 6.81641 8.4082 6.81641 8.9668C6.81641 9.51465 6.35449 9.97656 5.80664 9.97656ZM11.4893 17.9258C10.5117 17.9258 9.73828 17.1416 9.73828 16.1963C9.73828 15.5518 9.97461 15.1113 10.6514 14.5527L14.6045 11.1582C14.8623 10.9326 15.1523 10.9326 15.3564 11.083C15.5605 11.2334 15.6357 11.5127 15.4854 11.835L13.2832 16.5293C12.918 17.335 12.4453 17.9258 11.4893 17.9258Z" fill="#3C3C43" fill-opacity="0.6"/>
</svg>
