<svg width="24" height="21" viewBox="0 0 24 21" fill="none" xmlns="http://www.w3.org/2000/svg">
<path d="M3.92188 20.2344C1.58008 20.2344 0.398438 19.0742 0.398438 16.7539V11.5654C0.398438 9.96484 0.849609 9.07324 2.14941 8.08496L10.5176 1.76855C11.9678 0.672852 13.1172 0.286133 14.9219 0.286133H20.1426C22.4092 0.286133 23.5908 1.45703 23.5908 3.69141V16.7539C23.5908 19.0742 22.4199 20.2344 20.0674 20.2344H3.92188ZM4.38379 10.1904H20.0137C20.9482 10.1904 21.4854 9.64258 21.4854 8.70801V3.87402C21.4854 2.89648 20.959 2.38086 20.0137 2.38086H14.8252C13.5576 2.38086 12.8271 2.60645 11.9678 3.2832L4.13672 9.24512C3.69629 9.57812 3.81445 10.1904 4.38379 10.1904Z" fill="#3C3C43" fill-opacity="0.6"/>
</svg>
